<?xml version="1.0" standalone="no"?>
<!DOCTYPE svg PUBLIC "-//W3C//DTD SVG 20010904//EN"
 "http://www.w3.org/TR/2001/REC-SVG-20010904/DTD/svg10.dtd">
<svg version="1.0" xmlns="http://www.w3.org/2000/svg"
 width="86.000000pt" height="24.000000pt" viewBox="0 0 86.000000 24.000000"
 preserveAspectRatio="xMidYMid meet">
<metadata>
Created by potrace 1.10, written by Peter Selinger 2001-2011
</metadata>
<g transform="translate(0.000000,24.000000) scale(0.100000,-0.100000)"
fill="#000000" stroke="none">
<path d="M32 210 c-18 -8 -23 -16 -20 -37 3 -24 10 -30 48 -40 36 -9 39 -12
17 -12 -16 -1 -37 4 -48 10 -19 10 -20 8 -17 -28 3 -38 3 -38 50 -41 62 -4 90
11 86 46 -3 23 -8 27 -40 30 -21 2 -38 8 -38 14 0 6 13 8 35 4 31 -6 35 -4 41
19 3 14 4 28 1 32 -11 10 -92 13 -115 3z"/>
<path d="M170 201 c0 -11 6 -22 13 -24 7 -3 5 -6 -5 -6 -12 -1 -18 -9 -18 -26
0 -14 5 -25 10 -25 6 0 10 -13 10 -30 0 -23 4 -30 20 -30 18 0 20 7 20 55 0
34 -4 55 -11 55 -8 0 -8 4 1 15 15 18 5 35 -21 35 -12 0 -19 -7 -19 -19z"/>
<path d="M515 210 c-4 -7 -3 -16 3 -22 14 -14 47 -6 47 12 0 18 -40 26 -50 10z"/>
<path d="M580 140 l0 -81 28 3 c23 3 27 7 24 31 -3 24 0 27 28 27 24 0 31 4
26 15 -3 9 0 15 10 15 11 0 14 9 12 33 -3 32 -3 32 -65 35 l-63 3 0 -81z m83
3 c-7 -2 -19 -2 -25 0 -7 3 -2 5 12 5 14 0 19 -2 13 -5z"/>
<path d="M230 115 c0 -52 1 -55 25 -55 21 0 25 5 25 30 0 17 5 30 10 30 6 0
10 -13 10 -30 0 -25 4 -30 24 -30 15 0 27 -7 31 -19 8 -27 34 -34 61 -16 13 9
24 11 24 5 0 -5 12 -10 26 -10 23 0 25 3 22 33 -2 25 -8 33 -26 35 -13 2 -30
-2 -38 -9 -8 -6 -18 -9 -21 -5 -9 9 17 26 40 26 10 0 21 8 25 19 12 31 52 9
52 -29 0 -25 4 -30 25 -30 24 0 25 3 25 55 l0 55 -94 0 c-97 0 -125 -11 -112
-45 3 -8 2 -23 -2 -32 -5 -13 -9 -4 -12 27 -4 38 -9 46 -29 48 -13 2 -28 -2
-32 -10 -7 -10 -9 -10 -9 0 0 6 -11 12 -25 12 -24 0 -25 -3 -25 -55z m203 -2
c-7 -2 -19 -2 -25 0 -7 3 -2 5 12 5 14 0 19 -2 13 -5z"/>
<path d="M720 160 c0 -19 31 -84 43 -92 7 -5 1 -8 -15 -8 -21 0 -28 -5 -28
-19 0 -28 15 -34 53 -22 29 10 36 20 55 74 12 34 22 65 22 70 0 4 -13 7 -29 7
-23 0 -31 -5 -34 -22 l-4 -23 -2 23 c-1 18 -7 22 -31 22 -16 0 -30 -5 -30 -10z"/>
</g>
</svg>
